<?xml version="1.0" encoding="UTF-8" standalone="no"?>
<!DOCTYPE svg PUBLIC "-//W3C//DTD SVG 1.1//EN" "http://www.w3.org/Graphics/SVG/1.1/DTD/svg11.dtd">
<svg width="100%" height="100%" viewBox="0 0 17 17" version="1.1" xmlns="http://www.w3.org/2000/svg" xmlns:xlink="http://www.w3.org/1999/xlink" xml:space="preserve" xmlns:serif="http://www.serif.com/" style="fill-rule:evenodd;clip-rule:evenodd;stroke-linejoin:round;stroke-miterlimit:2;">
    <g transform="matrix(1,0,0,1,-348.242,-70.5145)">
        <g transform="matrix(0.538004,0,0,1.6012,255.454,8.18517)">
            <g transform="matrix(0.338888,0,0,0.338888,126.663,29.72)">
                <g transform="matrix(1,0,0,1,0,-11.8075)">
                    <g transform="matrix(2.00187,0,0,0.611585,-937.839,13.939)">
                        <path d="M567.96,46.343C567.96,43.359 565.757,40.936 563.043,40.936L553.21,40.936C550.496,40.936 548.293,43.359 548.293,46.343L548.293,84.195C548.293,87.179 550.496,89.602 553.21,89.602L563.043,89.602C565.757,89.602 567.96,87.179 567.96,84.195L567.96,46.343Z"/>
                    </g>
                    <g transform="matrix(1.9685,0,0,0.661417,-883.293,5.50052)">
                        <path d="M539.877,54.602L545.127,60.769L534.627,60.769L539.877,54.602Z" style="fill:white;"/>
                    </g>
                    <g transform="matrix(1.9685,0,0,-0.661417,-883.293,102.195)">
                        <path d="M539.877,54.602L545.127,60.769L534.627,60.769L539.877,54.602Z" style="fill:white;"/>
                    </g>
                </g>
                <g>
                    <g transform="matrix(1.31885,0,0,0.801718,-495.852,-27.0477)">
                        <path d="M545.627,82.061C545.627,79.784 542.282,77.936 538.164,77.936L485.923,77.936C481.804,77.936 478.46,79.784 478.46,82.061L478.46,90.311C478.46,92.587 481.804,94.436 485.923,94.436L538.164,94.436C542.282,94.436 545.627,92.587 545.627,90.311L545.627,82.061Z"/>
                    </g>
                    <g transform="matrix(1.20536e-16,0.661417,-1.9685,4.05001e-17,323.372,-315.035)">
                        <path d="M539.877,54.602L545.127,60.769L534.627,60.769L539.877,54.602Z" style="fill:white;"/>
                    </g>
                    <g transform="matrix(1.20536e-16,-0.661417,1.9685,4.05001e-17,35.6018,399.133)">
                        <path d="M539.877,54.602L545.127,60.769L534.627,60.769L539.877,54.602Z" style="fill:white;"/>
                    </g>
                </g>
            </g>
        </g>
    </g>
</svg>
