<?xml version="1.0" encoding="UTF-8" standalone="no"?>
<!DOCTYPE svg PUBLIC "-//W3C//DTD SVG 1.1//EN" "http://www.w3.org/Graphics/SVG/1.1/DTD/svg11.dtd">
<svg width="100%" height="100%" viewBox="0 0 123 29" version="1.1" xmlns="http://www.w3.org/2000/svg" xmlns:xlink="http://www.w3.org/1999/xlink" xml:space="preserve" xmlns:serif="http://www.serif.com/" style="fill-rule:evenodd;clip-rule:evenodd;stroke-linejoin:round;stroke-miterlimit:2;">
    <g transform="matrix(1,0,0,1,-242.059,-63.9631)">
        <g transform="matrix(0.825788,0,0,0.775426,41.7914,14.1542)">
            <g transform="matrix(0.651504,0,0,2.06493,258.737,-7.69779)">
                <g transform="matrix(0.338888,0,0,0.338888,126.663,29.72)">
                    <g transform="matrix(1,0,0,1,0,-11.8075)">
                        <g transform="matrix(2.00187,0,0,0.611585,-937.839,13.939)">
                            <path d="M567.96,46.343C567.96,43.359 565.757,40.936 563.043,40.936L553.21,40.936C550.496,40.936 548.293,43.359 548.293,46.343L548.293,84.195C548.293,87.179 550.496,89.602 553.21,89.602L563.043,89.602C565.757,89.602 567.96,87.179 567.96,84.195L567.96,46.343Z" style="fill:rgb(232,232,232);"/>
                        </g>
                        <g transform="matrix(1.9685,0,0,0.661417,-883.293,5.50052)">
                            <path d="M539.877,54.602L545.127,60.769L534.627,60.769L539.877,54.602Z" style="fill:rgb(212,212,212);"/>
                        </g>
                        <g transform="matrix(1.9685,0,0,-0.661417,-883.293,102.195)">
                            <path d="M539.877,54.602L545.127,60.769L534.627,60.769L539.877,54.602Z" style="fill:rgb(212,212,212);"/>
                        </g>
                    </g>
                    <g>
                        <g transform="matrix(1.31885,0,0,0.801718,-495.852,-27.0477)">
                            <path d="M545.627,82.061C545.627,79.784 542.282,77.936 538.164,77.936L485.923,77.936C481.804,77.936 478.46,79.784 478.46,82.061L478.46,90.311C478.46,92.587 481.804,94.436 485.923,94.436L538.164,94.436C542.282,94.436 545.627,92.587 545.627,90.311L545.627,82.061Z" style="fill:rgb(232,232,232);"/>
                        </g>
                        <g transform="matrix(1.20536e-16,0.661417,-1.9685,4.05001e-17,323.372,-315.035)">
                            <path d="M539.877,54.602L545.127,60.769L534.627,60.769L539.877,54.602Z" style="fill:rgb(212,212,212);"/>
                        </g>
                        <g transform="matrix(1.20536e-16,-0.661417,1.9685,4.05001e-17,35.6018,399.133)">
                            <path d="M539.877,54.602L545.127,60.769L534.627,60.769L539.877,54.602Z" style="fill:rgb(212,212,212);"/>
                        </g>
                    </g>
                </g>
                <g transform="matrix(1.98468,0,0,0.661417,-909.491,-20.9449)">
                    <g transform="matrix(29.6741,0,0,29.9179,444.643,105.85)">
                        <path d="M0.556,-0.717L0.219,-0.717C0.194,-0.717 0.17,-0.711 0.148,-0.698C0.126,-0.685 0.107,-0.669 0.09,-0.649C0.073,-0.629 0.06,-0.607 0.051,-0.583C0.041,-0.559 0.036,-0.536 0.036,-0.514L0.036,-0.23C0.036,-0.205 0.04,-0.179 0.049,-0.152C0.058,-0.125 0.07,-0.1 0.087,-0.078C0.105,-0.055 0.125,-0.037 0.15,-0.022C0.175,-0.007 0.203,-0 0.235,-0L0.409,-0C0.448,-0 0.481,-0.007 0.507,-0.022C0.534,-0.037 0.555,-0.054 0.571,-0.075C0.587,-0.095 0.599,-0.116 0.606,-0.139C0.613,-0.161 0.616,-0.18 0.616,-0.195L0.616,-0.42C0.616,-0.427 0.613,-0.43 0.606,-0.43L0.295,-0.43C0.288,-0.43 0.285,-0.427 0.285,-0.42L0.285,-0.31C0.285,-0.303 0.288,-0.3 0.295,-0.3L0.458,-0.3C0.465,-0.3 0.468,-0.297 0.468,-0.29L0.468,-0.197C0.468,-0.191 0.467,-0.184 0.464,-0.177C0.461,-0.169 0.456,-0.162 0.45,-0.155C0.443,-0.148 0.435,-0.143 0.426,-0.138C0.416,-0.133 0.405,-0.131 0.392,-0.131L0.27,-0.131C0.244,-0.131 0.223,-0.142 0.206,-0.165C0.189,-0.188 0.181,-0.217 0.181,-0.254L0.181,-0.515C0.181,-0.521 0.184,-0.528 0.189,-0.537C0.194,-0.545 0.2,-0.553 0.206,-0.561C0.214,-0.568 0.221,-0.575 0.229,-0.58C0.237,-0.585 0.244,-0.587 0.25,-0.587L0.556,-0.587C0.563,-0.587 0.566,-0.59 0.566,-0.597L0.566,-0.707C0.566,-0.714 0.563,-0.717 0.556,-0.717Z" style="fill:rgb(18,153,191);fill-rule:nonzero;"/>
                    </g>
                    <g transform="matrix(29.7555,0,0,30,462.797,105.844)">
                        <path d="M0.041,-0.707L0.041,-0.01C0.041,-0.003 0.044,-0 0.051,-0L0.176,-0C0.183,-0 0.186,-0.003 0.186,-0.01L0.186,-0.239C0.186,-0.246 0.189,-0.249 0.196,-0.249L0.37,-0.249C0.407,-0.249 0.439,-0.255 0.465,-0.266C0.491,-0.277 0.512,-0.292 0.528,-0.313C0.544,-0.334 0.556,-0.358 0.563,-0.387C0.57,-0.416 0.574,-0.448 0.574,-0.483C0.574,-0.517 0.57,-0.548 0.563,-0.577C0.556,-0.606 0.544,-0.63 0.528,-0.651C0.512,-0.672 0.491,-0.688 0.465,-0.7C0.439,-0.711 0.407,-0.717 0.37,-0.717L0.051,-0.717C0.044,-0.717 0.041,-0.714 0.041,-0.707ZM0.387,-0.587C0.399,-0.587 0.408,-0.583 0.416,-0.575C0.423,-0.566 0.428,-0.556 0.431,-0.545C0.434,-0.534 0.437,-0.522 0.438,-0.51C0.439,-0.499 0.439,-0.49 0.439,-0.483C0.439,-0.476 0.439,-0.467 0.438,-0.456C0.437,-0.444 0.434,-0.432 0.431,-0.421C0.428,-0.41 0.423,-0.4 0.416,-0.392C0.408,-0.383 0.399,-0.379 0.387,-0.379L0.196,-0.379C0.189,-0.379 0.186,-0.382 0.186,-0.389L0.186,-0.577C0.186,-0.584 0.189,-0.587 0.196,-0.587L0.387,-0.587Z" style="fill:rgb(252,252,252);fill-rule:nonzero;"/>
                    </g>
                    <g transform="matrix(29.7555,0,0,30,480.234,105.844)">
                        <path d="M0.041,-0.707L0.041,-0.01C0.041,-0.003 0.044,-0 0.051,-0L0.153,-0C0.16,-0 0.163,-0.003 0.163,-0.01L0.163,-0.707C0.163,-0.714 0.16,-0.717 0.153,-0.717L0.051,-0.717C0.044,-0.717 0.041,-0.714 0.041,-0.707Z" style="fill:rgb(252,252,252);fill-rule:nonzero;"/>
                    </g>
                    <g transform="matrix(29.7555,0,0,30,486.363,105.844)">
                        <path d="M0.06,-0.511L0.06,-0.409C0.06,-0.402 0.063,-0.399 0.07,-0.399L0.333,-0.399C0.344,-0.399 0.352,-0.394 0.359,-0.385C0.366,-0.376 0.369,-0.366 0.369,-0.357C0.369,-0.346 0.364,-0.336 0.354,-0.328C0.343,-0.319 0.329,-0.315 0.312,-0.315L0.145,-0.315C0.125,-0.315 0.108,-0.309 0.094,-0.298C0.08,-0.287 0.069,-0.273 0.06,-0.257C0.051,-0.24 0.045,-0.222 0.041,-0.203C0.037,-0.184 0.035,-0.166 0.035,-0.15C0.035,-0.141 0.036,-0.129 0.039,-0.112C0.042,-0.095 0.047,-0.079 0.054,-0.062C0.061,-0.045 0.07,-0.031 0.083,-0.019C0.096,-0.006 0.112,-0 0.132,-0L0.481,-0C0.488,-0 0.491,-0.003 0.491,-0.01L0.491,-0.34C0.491,-0.361 0.489,-0.383 0.484,-0.404C0.478,-0.425 0.47,-0.445 0.46,-0.462C0.449,-0.479 0.434,-0.494 0.417,-0.504C0.399,-0.516 0.377,-0.521 0.352,-0.521L0.07,-0.521C0.063,-0.521 0.06,-0.518 0.06,-0.511ZM0.187,-0.117C0.175,-0.117 0.166,-0.121 0.159,-0.13C0.152,-0.139 0.149,-0.149 0.149,-0.16C0.149,-0.169 0.152,-0.178 0.158,-0.186C0.164,-0.193 0.172,-0.197 0.181,-0.197L0.359,-0.197C0.366,-0.197 0.369,-0.194 0.369,-0.187L0.369,-0.127C0.369,-0.12 0.366,-0.117 0.359,-0.117L0.187,-0.117Z" style="fill:rgb(252,252,252);fill-rule:nonzero;"/>
                    </g>
                    <g transform="matrix(29.7555,0,0,30,501.181,105.844)">
                        <path d="M0.271,0.194C0.28,0.194 0.285,0.191 0.287,0.186L0.554,-0.51C0.555,-0.511 0.555,-0.513 0.555,-0.514C0.555,-0.519 0.552,-0.521 0.545,-0.521L0.425,-0.521C0.419,-0.521 0.415,-0.519 0.414,-0.515L0.287,-0.18C0.286,-0.178 0.285,-0.175 0.283,-0.171C0.282,-0.166 0.28,-0.162 0.278,-0.158C0.276,-0.153 0.274,-0.149 0.271,-0.146C0.268,-0.143 0.266,-0.141 0.263,-0.141C0.26,-0.141 0.258,-0.143 0.255,-0.147C0.252,-0.15 0.25,-0.154 0.248,-0.159C0.245,-0.163 0.243,-0.167 0.242,-0.172C0.241,-0.176 0.24,-0.179 0.239,-0.181L0.133,-0.514C0.131,-0.519 0.127,-0.521 0.121,-0.521L0.005,-0.521C0,-0.521 -0.002,-0.519 -0.002,-0.514C-0.002,-0.512 -0.002,-0.511 -0.001,-0.51L0.161,-0.033C0.164,-0.023 0.169,-0.016 0.175,-0.012C0.182,-0.007 0.188,-0.004 0.194,-0.003C0.2,-0.002 0.205,-0.001 0.21,-0.001C0.215,-0.001 0.217,-0 0.217,0.001L0.217,0.002L0.147,0.187L0.147,0.19C0.147,0.193 0.149,0.194 0.152,0.194L0.271,0.194Z" style="fill:rgb(252,252,252);fill-rule:nonzero;"/>
                    </g>
                    <g transform="matrix(29.7555,0,0,30,516.863,105.844)">
                        <path d="M0.149,-0.202L0.519,-0.202C0.526,-0.202 0.529,-0.205 0.529,-0.212L0.529,-0.316C0.529,-0.347 0.525,-0.376 0.516,-0.401C0.506,-0.426 0.492,-0.448 0.473,-0.466C0.454,-0.483 0.429,-0.497 0.399,-0.506C0.369,-0.516 0.333,-0.521 0.292,-0.521C0.259,-0.521 0.226,-0.517 0.193,-0.508C0.16,-0.5 0.13,-0.486 0.103,-0.465C0.077,-0.444 0.056,-0.417 0.04,-0.382C0.023,-0.346 0.015,-0.302 0.015,-0.249C0.015,-0.205 0.02,-0.167 0.029,-0.136C0.039,-0.105 0.056,-0.079 0.079,-0.059C0.102,-0.038 0.132,-0.023 0.17,-0.014C0.207,-0.005 0.254,-0 0.31,-0L0.479,-0C0.486,-0 0.489,-0.003 0.489,-0.01L0.489,-0.112C0.489,-0.119 0.486,-0.122 0.479,-0.122L0.241,-0.122C0.227,-0.122 0.214,-0.124 0.201,-0.128C0.188,-0.131 0.178,-0.136 0.169,-0.142C0.16,-0.149 0.152,-0.156 0.147,-0.165C0.142,-0.173 0.139,-0.182 0.139,-0.192C0.139,-0.199 0.142,-0.202 0.149,-0.202ZM0.149,-0.319C0.142,-0.319 0.139,-0.322 0.139,-0.329C0.139,-0.342 0.144,-0.353 0.154,-0.364C0.164,-0.374 0.177,-0.383 0.192,-0.39C0.206,-0.397 0.222,-0.402 0.238,-0.406C0.255,-0.41 0.27,-0.412 0.283,-0.412C0.325,-0.412 0.358,-0.405 0.381,-0.39C0.404,-0.375 0.416,-0.354 0.416,-0.329C0.416,-0.322 0.413,-0.319 0.406,-0.319L0.149,-0.319Z" style="fill:rgb(252,252,252);fill-rule:nonzero;"/>
                    </g>
                    <g transform="matrix(29.7555,0,0,30,533.585,105.844)">
                        <path d="M0.262,-0.122C0.222,-0.122 0.193,-0.133 0.174,-0.154C0.156,-0.174 0.147,-0.202 0.147,-0.235L0.147,-0.278C0.147,-0.312 0.157,-0.341 0.175,-0.364C0.195,-0.387 0.223,-0.399 0.262,-0.399L0.451,-0.399C0.458,-0.399 0.461,-0.402 0.461,-0.409L0.461,-0.511C0.461,-0.518 0.458,-0.521 0.451,-0.521L0.282,-0.521C0.238,-0.521 0.2,-0.516 0.168,-0.505C0.136,-0.495 0.11,-0.481 0.09,-0.462C0.069,-0.443 0.054,-0.42 0.045,-0.393C0.035,-0.366 0.03,-0.335 0.03,-0.301L0.03,-0.217C0.03,-0.192 0.035,-0.166 0.046,-0.141C0.057,-0.115 0.072,-0.092 0.092,-0.07C0.112,-0.05 0.136,-0.033 0.165,-0.02C0.194,-0.007 0.226,-0 0.263,-0L0.451,-0C0.458,-0 0.461,-0.003 0.461,-0.01L0.461,-0.112C0.461,-0.119 0.458,-0.122 0.451,-0.122L0.262,-0.122Z" style="fill:rgb(252,252,252);fill-rule:nonzero;"/>
                    </g>
                </g>
            </g>
        </g>
    </g>
</svg>
